# xmcd
#
# Track frame offsets:
#	150
#	4801
#	40816
#	72431
#	111677
#	183067
#
# Disc length: 3280 seconds
#
# Revision: 0
# Processed by: cddbd v1.5.2PL0 Copyright (c) Steve Scherf et al.
# Submitted via: audiograbber 1.83.01
#
DISCID=4d0cce06
DTITLE=Grateful Dead - 93-12-08 Los Angeles Sports Arena, Los Angeles CA
DYEAR=1900
DGENRE=
TTITLE0=Tuning 2
TTITLE1=Iko Iko
TTITLE2=Way To Go Home
TTITLE3=Playing In The Band
TTITLE4=Uncle John's Band
TTITLE5=Drums
EXTD=
EXTT0=
EXTT1=
EXTT2=
EXTT3=
EXTT4=
EXTT5=
PLAYORDER=
